# xmcd CD database file generated by OrangeCD 5.2
#
# Track frame offsets:
#	150
#	6611
#	22595
#	28023
#	46931
#	52861
#	67561
#	73363
#	91909
#	99152
#	114032
#	121697
#	137310
#	143790
#	159388
#	166880
#	182319
#	186990
#	204755
#	210866
#
# Disc length: 3012 seconds
#
# Revision: 1
# Processed by: cddbd v1.5.1PL0 Copyright (c) Steve Scherf et al.
# Submitted via: OrangeCD 5.2
#
DISCID=e70bc214
DTITLE=Dave Sheriff - Love To Line Dance 4 - Latin and Line
DYEAR=1998
DGENRE=Country
TTITLE0=Mexican Salsa (teaching speed)
TTITLE1=Mexican Salsa
TTITLE2=Sole Survivor (teaching speed)
TTITLE3=Sole Survivor
TTITLE4=Tia Maria (teaching speed)
TTITLE5=Tia Maria
TTITLE6=Rosie Marie (teaching speed)
TTITLE7=Rosie Marie
TTITLE8=Do The Mambo (teaching speed)
TTITLE9=Do The Mambo
TTITLE10=Always and Forever (teaching speed)
TTITLE11=Always and Forever
TTITLE12=Tango Montana (teaching speed)
TTITLE13=Tango Montana
TTITLE14=Brazilean Samba (teaching speed)
TTITLE15=Brazilean Samba
TTITLE16=Rainbow Rhythm (teaching speed)
TTITLE17=Rainbow Rhythm
TTITLE18=Let's Merengue (teaching speed)
TTITLE19=Let's Merengue
EXTD=
EXTT0=
EXTT1=
EXTT2=
EXTT3=
EXTT4=
EXTT5=
EXTT6=
EXTT7=
EXTT8=
EXTT9=
EXTT10=
EXTT11=
EXTT12=
EXTT13=
EXTT14=
EXTT15=
EXTT16=
EXTT17=
EXTT18=
EXTT19=
PLAYORDER=
